<svg viewBox="-960 -452 1920 904" width="1920" height="904" style="background-color: rgb(255, 255, 255);" xmlns="http://www.w3.org/2000/svg"><path d="M-278.8309591488426,115.63490522592845L-351.08234082919137,109.92408448172034M-351.08234082919137,-253.03534208846665L-351.08234082919137,109.92408448172034M-351.08234082919137,109.92408448172034L-454.9099005720971,210.3049998647557M-278.8309591488426,-247.3245213442585L-278.8309591488426,115.63490522592845M-278.8309591488426,115.63490522592845L-382.6585188917484,216.01582060896385M-283.17720292293836,58.681621760838674L-355.4285846032871,52.97080101663055M-355.4285846032871,-41.60619948151105L-355.4285846032871,52.97080101663055M-355.4285846032871,52.97080101663055L-382.4831214211282,79.12723942049551" style="fill:none;stroke:rgb(0,0,0);stroke-width:1;stroke-linecap:round"></path><path d="M-283.1772029229383,58.68162176083865L-355.42858460328705,52.97080101663053L-355.42858460328705,-41.60619948151104z" style="fill:rgb(153,221,255); fill-opacity: 0.4"></path><path d="M-283.17720292293836,-35.89537873730291L-283.17720292293836,58.681621760838674M-283.17720292293836,58.681621760838674L-310.23173974077946,84.83806016470365M-283.17719411149153,-35.89537489132453L-283.17719411149153,58.68162560681705M-283.17719411149153,58.68162560681705L-310.2317291360089,84.83806227688913M-283.17719411149153,58.68162560681705L-189.62361825616713,20.51034390316854M-283.17720292293836,-35.89537873730291L-355.4285846032871,-41.60619948151105M-355.4285846032871,-41.60619948151105L-382.4831214211282,-15.449761077646073" style="fill:none;stroke:rgb(0,0,0);stroke-width:1;stroke-linecap:round"></path><path d="M-283.1772029229383,-35.89537873730292L-283.1772029229383,58.68162176083865L-355.42858460328705,-41.60619948151104zM-382.4831214211282,79.12723942049551L-355.42858460328705,52.97080101663053L-283.1772029229383,58.68162176083865z" style="fill:rgb(153,221,255); fill-opacity: 0.4"></path><path d="M-283.17720292293836,-35.89537873730291L-310.23173974077946,-9.738940333437952M-283.17719411149153,-35.89537489132453L-310.2317291360089,-9.738938221252468M-283.17719411149153,-35.89537489132453L-189.62361825616713,20.51034390316854" style="fill:none;stroke:rgb(0,0,0);stroke-width:1;stroke-linecap:round"></path><path d="M-355.42858460328705,-41.60619948151104L-355.42858460328705,52.97080101663053L-382.4831214211282,-15.44976107764608zM-310.23173974077946,84.83806016470363L-283.1772029229383,58.68162176083865L-283.1772029229383,-35.89537873730292z" style="fill:rgb(153,221,255); fill-opacity: 0.4"></path><path d="M-283.1772039325355,-35.8953771939561L-283.1772039325355,58.68162080544705L-310.23174003559177,84.83805851825501z" style="fill:rgb(255,187,187); fill-opacity: 0.4"></path><path d="M-355.42858460328705,52.97080101663053L-382.4831214211282,79.12723942049551L-382.4831214211282,-15.44976107764608zM-310.23173974077946,-9.738940333437956L-283.1772029229383,-35.89537873730292L-355.42858460328705,-41.60619948151104z" style="fill:rgb(153,221,255); fill-opacity: 0.4"></path><path d="M-278.8309591488426,-247.3245213442585L-351.08234082919137,-253.03534208846665M-351.08234082919137,-253.03534208846665L-454.9099005720971,-152.65442670543126" style="fill:none;stroke:rgb(0,0,0);stroke-width:1;stroke-linecap:round"></path><path d="M-310.23173974077946,84.83806016470363L-382.4831214211282,79.12723942049551L-283.1772029229383,58.68162176083865z" style="fill:rgb(153,221,255); fill-opacity: 0.4"></path><path d="M-283.1772039325355,58.68162080544705L-283.1772039325355,-35.8953771939561L-189.6236166847652,20.510344737114735z" style="fill:rgb(255,187,187); fill-opacity: 0.4"></path><path d="M-382.4831214211282,-15.449761077646073L-382.4831214211282,79.12723942049551M-382.4831214211282,79.12723942049551L-310.23173974077946,84.83806016470365M-278.8309591488426,-247.3245213442585L-382.6585188917484,-146.94360596122314" style="fill:none;stroke:rgb(0,0,0);stroke-width:1;stroke-linecap:round"></path><path d="M-382.4831214211282,-15.44976107764608L-310.23173974077946,-9.738940333437956L-355.42858460328705,-41.60619948151104z" style="fill:rgb(153,221,255); fill-opacity: 0.4"></path><path d="M46.00093405740866,99.09672450216824L-177.68235442769702,81.41657591117087M-177.68235442769702,-161.07604047783357L-177.68235442769702,81.41657591117087M-177.68235442769702,81.41657591117087L-247.04938217859143,148.48090603967478" style="fill:none;stroke:rgb(0,0,0);stroke-width:1;stroke-linecap:round"></path><path d="M-310.23174003559177,84.83805851825501L-283.1772039325355,58.68162080544705L-189.6236166847652,20.510344737114735zM-283.1772039325355,-35.8953771939561L-310.23174003559177,84.83805851825501L-310.23174003559177,-9.738939481148135z" style="fill:rgb(255,187,187); fill-opacity: 0.4"></path><path d="M-310.23173974077946,-9.738940333437956L-310.23173974077946,84.83806016470363L-283.1772029229383,-35.89537873730292z" style="fill:rgb(153,221,255); fill-opacity: 0.4"></path><path d="M-310.23173974077946,-9.738940333437952L-310.23173974077946,84.83806016470365M-310.2317291360089,84.83806227688913L-310.2317291360089,-9.738938221252468M-310.2317291360089,84.83806227688913L-189.62361825616713,20.51034390316854" style="fill:none;stroke:rgb(0,0,0);stroke-width:1;stroke-linecap:round"></path><path d="M-382.4831214211282,79.12723942049551L-310.23173974077946,84.83806016470363L-310.23173974077946,-9.738940333437956z" style="fill:rgb(153,221,255); fill-opacity: 0.4"></path><path d="M-283.1772039325355,-35.8953771939561L-310.23174003559177,-9.738939481148135L-189.6236166847652,20.510344737114735z" style="fill:rgb(255,187,187); fill-opacity: 0.4"></path><path d="M-382.4831214211282,-15.44976107764608L-382.4831214211282,79.12723942049551L-310.23173974077946,-9.738940333437956z" style="fill:rgb(153,221,255); fill-opacity: 0.4"></path><path d="M-382.4831214211282,-15.449761077646073L-310.23173974077946,-9.738940333437952M49.83958746152074,-35.88513773799519L-173.8437010235849,-53.56528632899258M-173.8437010235849,-130.31523496862843L-173.8437010235849,-53.56528632899258M-173.8437010235849,-53.56528632899258L-195.79866153514442,-32.33913944847397" style="fill:none;stroke:rgb(0,0,0);stroke-width:1;stroke-linecap:round"></path><path d="M-310.23174003559177,-9.738939481148135L-310.23174003559177,84.83805851825501L-189.6236166847652,20.510344737114735z" style="fill:rgb(255,187,187); fill-opacity: 0.4"></path><path d="M-310.2317291360089,-9.738938221252468L-189.62361825616713,20.51034390316854M49.83958746152074,-112.63508637763104L-173.8437010235849,-130.31523496862843M-173.8437010235849,-130.31523496862843L-195.79866153514442,-109.08908808810982" style="fill:none;stroke:rgb(0,0,0);stroke-width:1;stroke-linecap:round"></path><path d="M49.83958746152076,-35.8851377379952L-173.84370102358488,-53.56528632899258L-173.84370102358488,-130.31523496862843z" style="fill:rgb(153,221,255); fill-opacity: 0.4"></path><path d="M46.00093405740866,-143.39589188683618L46.00093405740866,99.09672450216824M46.00093405740866,99.09672450216824L-23.36609369348578,166.1610546306722" style="fill:none;stroke:rgb(0,0,0);stroke-width:1;stroke-linecap:round"></path><path d="M-173.84370102358488,-130.31523496862843L-173.84370102358488,-53.56528632899258L-195.79866153514442,-109.08908808810982z" style="fill:rgb(153,221,255); fill-opacity: 0.4"></path><path d="M46.00093405740866,-143.39589188683618L-177.68235442769702,-161.07604047783357M-177.68235442769702,-161.07604047783357L-247.04938217859143,-94.01171034932962" style="fill:none;stroke:rgb(0,0,0);stroke-width:1;stroke-linecap:round"></path><path d="M-195.79866153514442,-32.33913944847397L-173.84370102358488,-53.56528632899258L49.83958746152076,-35.8851377379952zM49.83958746152076,-112.63508637763104L49.83958746152076,-35.8851377379952L-173.84370102358488,-130.31523496862843zM-173.84370102358488,-53.56528632899258L-195.79866153514442,-32.33913944847397L-195.79866153514442,-109.08908808810982z" style="fill:rgb(153,221,255); fill-opacity: 0.4"></path><path d="M49.83958746152074,-112.63508637763104L49.83958746152074,-35.88513773799519M49.83958746152074,-35.88513773799519L27.884626949961234,-14.658990857476583M49.8395873810734,-112.63508700851986L49.8395873810734,-35.88513680161277M49.8395873810734,-35.88513680161277L27.88462686951389,-14.658989921094172M49.8395873810734,-35.88513680161277L145.22337213791303,-21.555242791872466M-195.79866153514442,-109.08908808810982L-195.79866153514442,-32.33913944847397M-195.79866153514442,-32.33913944847397L27.884626949961234,-14.658990857476583M49.83958746152074,-112.63508637763104L27.884626949961234,-91.40893949711244M49.8395873810734,-112.63508700851986L27.88462686951389,-91.40894012800123M49.8395873810734,-112.63508700851986L145.22337213791303,-21.555242791872466" style="fill:none;stroke:rgb(0,0,0);stroke-width:1;stroke-linecap:round"></path><path d="M27.88462694996122,-91.40893949711244L49.83958746152076,-112.63508637763104L-173.84370102358488,-130.31523496862843zM27.88462694996122,-14.658990857476592L-195.79866153514442,-32.33913944847397L49.83958746152076,-35.8851377379952zM-195.79866153514442,-109.08908808810982L27.88462694996122,-91.40893949711244L-173.84370102358488,-130.31523496862843z" style="fill:rgb(153,221,255); fill-opacity: 0.4"></path><path d="M49.83958583205238,-112.63508684334833L49.83958583205238,-35.8851376850401L27.88462517212233,-14.658990661076238z" style="fill:rgb(255,187,187); fill-opacity: 0.4"></path><path d="M27.88462694996122,-14.658990857476592L49.83958746152076,-35.8851377379952L49.83958746152076,-112.63508637763104z" style="fill:rgb(153,221,255); fill-opacity: 0.4"></path><path d="M-195.79866153514442,-109.08908808810982L27.884626949961234,-91.40893949711244M46.00093405740866,-143.39589188683618L-23.36609369348578,-76.33156175833224" style="fill:none;stroke:rgb(0,0,0);stroke-width:1;stroke-linecap:round"></path><path d="M49.83958583205238,-35.8851376850401L49.83958583205238,-112.63508684334833L145.2233824097458,-21.555242937721193z" style="fill:rgb(255,187,187); fill-opacity: 0.4"></path><path d="M-195.79866153514442,-109.08908808810982L-195.79866153514442,-32.33913944847397L27.88462694996122,-91.40893949711244zM-195.79866153514442,-32.33913944847397L27.88462694996122,-14.658990857476592L27.88462694996122,-91.40893949711244z" style="fill:rgb(153,221,255); fill-opacity: 0.4"></path><path d="M27.88462517212233,-14.658990661076238L49.83958583205238,-35.8851376850401L145.2233824097458,-21.555242937721193zM49.83958583205238,-112.63508684334833L27.88462517212233,-14.658990661076238L27.88462517212233,-91.40893981938449z" style="fill:rgb(255,187,187); fill-opacity: 0.4"></path><path d="M27.88462694996122,-91.40893949711244L27.88462694996122,-14.658990857476592L49.83958746152076,-112.63508637763104z" style="fill:rgb(153,221,255); fill-opacity: 0.4"></path><path d="M418.51641325357275,91.46758124874391L149.24757275547813,70.1843054923215M149.24757275547813,-66.51010611603084L149.24757275547813,70.1843054923215M149.24757275547813,70.1843054923215L110.14500054264963,107.98883448514665M27.884626949961234,-91.40893949711244L27.884626949961234,-14.658990857476583M27.88462686951389,-14.658989921094172L27.88462686951389,-91.40894012800123M27.88462686951389,-14.658989921094172L145.22337213791303,-21.555242791872466" style="fill:none;stroke:rgb(0,0,0);stroke-width:1;stroke-linecap:round"></path><path d="M49.83958583205238,-112.63508684334833L27.88462517212233,-91.40893981938449L145.2233824097458,-21.555242937721193zM27.88462517212233,-91.40893981938449L27.88462517212233,-14.658990661076238L145.2233824097458,-21.555242937721193z" style="fill:rgb(255,187,187); fill-opacity: 0.4"></path><path d="M27.88462686951389,-91.40894012800123L145.22337213791303,-21.555242791872466M418.51641325357275,-45.226830359608435L149.24757275547813,-66.51010611603084M149.24757275547813,-66.51010611603084L110.14500054264963,-28.705577123205693M-454.9099005720971,-152.65442670543126L-454.9099005720971,210.3049998647557M-454.9099005720971,210.3049998647557L-382.6585188917484,216.01582060896385M-247.04938217859143,-94.01171034932962L-247.04938217859143,148.48090603967478M-247.04938217859143,148.48090603967478L-23.36609369348578,166.1610546306722M418.51641325357275,-45.226830359608435L418.51641325357275,91.46758124874391M418.51641325357275,91.46758124874391L379.4138410407443,129.27211024156904M-382.6585188917484,-146.94360596122314L-382.6585188917484,216.01582060896385M592.239409471921,278.3073938266157L546.6538637308704,274.7042671569309M546.6538637308704,-180.94380497269634L546.6538637308704,274.7042671569309M546.6538637308704,274.7042671569309L533.6196723954863,287.3057773991369M418.51641325357275,-45.226830359608435L379.4138410407443,-7.422301366783292M592.239409471921,-177.34067830301152L592.239409471921,278.3073938266157M592.239409471921,278.3073938266157L579.2052181365369,290.9089040688217M110.14500054264963,-28.705577123205693L110.14500054264963,107.98883448514665M110.14500054264963,107.98883448514665L379.4138410407443,129.27211024156904M-23.36609369348578,-76.33156175833224L-23.36609369348578,166.1610546306722M-247.04938217859143,-94.01171034932962L-23.36609369348578,-76.33156175833224M533.6196723954863,-168.3422947304903L533.6196723954863,287.3057773991369M533.6196723954863,287.3057773991369L579.2052181365369,290.9089040688217M-454.9099005720971,-152.65442670543126L-382.6585188917484,-146.94360596122314M579.2052181365369,-164.7391680608055L579.2052181365369,290.9089040688217M428.3344991124111,44.34402417976985L494.10053970852755,49.54223714353503M110.14500054264963,-28.705577123205693L379.4138410407443,-7.422301366783292M756.2038281607197,222.92008547883106L710.6182824196692,219.31695880914626M710.6182824196692,-99.63667663578903L710.6182824196692,219.31695880914626M710.6182824196692,219.31695880914626L697.5840910842851,231.91846905135228M756.2038281607197,-96.03354996610422L756.2038281607197,222.92008547883106M756.2038281607197,222.92008547883106L743.1696368253356,235.52159572103707" style="fill:none;stroke:rgb(0,0,0);stroke-width:1;stroke-linecap:round"></path><path d="M496.8637715040514,33.575323610377396L491.3373079130039,38.918331531145434L533.5601640661976,52.661164921794125zM489.6295365699112,58.94321616719452L494.10053970852766,65.9762669974589L533.5601640661976,52.661164921794125zM491.3373079130039,38.918331531145434L489.6295365699112,58.94321616719452L533.5601640661976,52.661164921794125z" style="fill:rgb(0,0,0)"></path><path d="M379.4138410407443,-7.422301366783292L379.4138410407443,129.27211024156904M592.2989178012099,57.30393417433119L658.0649583973263,62.50214713809636M697.5840910842851,-87.03516639358301L697.5840910842851,231.91846905135228M697.5840910842851,231.91846905135228L743.1696368253356,235.52159572103707M743.1696368253356,-83.4320397238982L743.1696368253356,235.52159572103707" style="fill:none;stroke:rgb(0,0,0);stroke-width:1;stroke-linecap:round"></path><path d="M660.82819019285,46.53523360493873L655.3017266018026,51.87824152570677L697.5245827549962,65.62107491635548zM653.5939552587098,71.90312616175585L658.0649583973263,78.93617699202022L697.5245827549962,65.62107491635548z" style="fill:rgb(0,0,0)"></path><path d="M592.239409471921,-177.34067830301152L546.6538637308704,-180.94380497269634M546.6538637308704,-180.94380497269634L533.6196723954863,-168.3422947304903" style="fill:none;stroke:rgb(0,0,0);stroke-width:1;stroke-linecap:round"></path><path d="M655.3017266018026,51.87824152570677L653.5939552587098,71.90312616175585L697.5245827549962,65.62107491635548z" style="fill:rgb(0,0,0)"></path><path d="M920.1682468495183,152.08467998628123L874.5827011084677,148.48155331659643M874.5827011084677,-2.8814511541165304L874.5827011084677,148.48155331659643M874.5827011084677,148.48155331659643L861.5485097730837,161.08306355880245M592.239409471921,-177.34067830301152L579.2052181365369,-164.7391680608055M920.1682468495183,0.7216755155682721L920.1682468495183,152.08467998628123M920.1682468495183,152.08467998628123L907.1340555141342,164.68619022848725M756.2633364900084,70.26384416889253L822.0293770861249,75.4620571326577M756.2038281607197,-96.03354996610422L710.6182824196692,-99.63667663578903M710.6182824196692,-99.63667663578903L697.5840910842851,-87.03516639358301M756.2038281607197,-96.03354996610422L743.1696368253356,-83.4320397238982" style="fill:none;stroke:rgb(0,0,0);stroke-width:1;stroke-linecap:round"></path><path d="M824.7926088816486,59.49514359950008L819.2661452906011,64.83815152026811L861.4890014437949,78.58098491091681zM817.5583739475084,84.8630361563172L822.0293770861249,91.89608698658158L861.4890014437949,78.58098491091681z" style="fill:rgb(0,0,0)"></path><path d="M533.6196723954863,-168.3422947304903L579.2052181365369,-164.7391680608055" style="fill:none;stroke:rgb(0,0,0);stroke-width:1;stroke-linecap:round"></path><path d="M819.2661452906011,64.83815152026811L817.5583739475084,84.8630361563172L861.4890014437949,78.58098491091681z" style="fill:rgb(0,0,0)"></path><path d="M920.1682468495183,0.7216755155682721L874.5827011084677,-2.8814511541165304M874.5827011084677,-2.8814511541165304L861.5485097730837,9.720059088089492M861.5485097730837,9.720059088089492L861.5485097730837,161.08306355880245M861.5485097730837,161.08306355880245L907.1340555141342,164.68619022848725M920.1682468495183,0.7216755155682721L907.1340555141342,13.323185757774294M907.1340555141342,13.323185757774294L907.1340555141342,164.68619022848725M697.5840910842851,-87.03516639358301L743.1696368253356,-83.4320397238982M861.5485097730837,9.720059088089492L907.1340555141342,13.323185757774294" style="fill:none;stroke:rgb(0,0,0);stroke-width:1;stroke-linecap:round"></path></svg>