<svg xmlns="http://www.w3.org/2000/svg" width="1920" height="904" style="cursor: move;"><g><path class="link" marker-end="" d="M659,38, 993,276.5" style="stroke-width: 1.01; stroke-opacity: 1; stroke: rgb(255, 174, 174);"></path><path class="link" marker-end="" d="M659,38, 993,329.5" style="stroke-width: 1.01; stroke-opacity: 1; stroke: rgb(121, 121, 255);"></path><path class="link" marker-end="" d="M659,38, 993,382.5" style="stroke-width: 1.01; stroke-opacity: 1; stroke: rgb(255, 18, 18);"></path><path class="link" marker-end="" d="M659,38, 993,435.5" style="stroke-width: 1.01; stroke-opacity: 1; stroke: rgb(255, 234, 234);"></path><path class="link" marker-end="" d="M659,38, 993,488.5" style="stroke-width: 1.01; stroke-opacity: 1; stroke: rgb(255, 168, 168);"></path><path class="link" marker-end="" d="M659,38, 993,541.5" style="stroke-width: 1.01; stroke-opacity: 1; stroke: rgb(255, 132, 132);"></path><path class="link" marker-end="" d="M659,38, 993,594.5" style="stroke-width: 1.01; stroke-opacity: 1; stroke: rgb(255, 203, 203);"></path><path class="link" marker-end="" d="M659,91, 993,276.5" style="stroke-width: 1.01; stroke-opacity: 1; stroke: rgb(255, 12, 12);"></path><path class="link" marker-end="" d="M659,91, 993,329.5" style="stroke-width: 1.01; stroke-opacity: 1; stroke: rgb(24, 24, 255);"></path><path class="link" marker-end="" d="M659,91, 993,382.5" style="stroke-width: 1.01; stroke-opacity: 1; stroke: rgb(213, 213, 255);"></path><path class="link" marker-end="" d="M659,91, 993,435.5" style="stroke-width: 1.01; stroke-opacity: 1; stroke: rgb(255, 1, 1);"></path><path class="link" marker-end="" d="M659,91, 993,488.5" style="stroke-width: 1.01; stroke-opacity: 1; stroke: rgb(123, 123, 255);"></path><path class="link" marker-end="" d="M659,91, 993,541.5" style="stroke-width: 1.01; stroke-opacity: 1; stroke: rgb(255, 124, 124);"></path><path class="link" marker-end="" d="M659,91, 993,594.5" style="stroke-width: 1.01; stroke-opacity: 1; stroke: rgb(234, 234, 255);"></path><path class="link" marker-end="" d="M659,144, 993,276.5" style="stroke-width: 1.01; stroke-opacity: 1; stroke: rgb(255, 38, 38);"></path><path class="link" marker-end="" d="M659,144, 993,329.5" style="stroke-width: 1.01; stroke-opacity: 1; stroke: rgb(48, 48, 255);"></path><path class="link" marker-end="" d="M659,144, 993,382.5" style="stroke-width: 1.01; stroke-opacity: 1; stroke: rgb(255, 202, 202);"></path><path class="link" marker-end="" d="M659,144, 993,435.5" style="stroke-width: 1.01; stroke-opacity: 1; stroke: rgb(255, 164, 164);"></path><path class="link" marker-end="" d="M659,144, 993,488.5" style="stroke-width: 1.01; stroke-opacity: 1; stroke: rgb(255, 67, 67);"></path><path class="link" marker-end="" d="M659,144, 993,541.5" style="stroke-width: 1.01; stroke-opacity: 1; stroke: rgb(255, 214, 214);"></path><path class="link" marker-end="" d="M659,144, 993,594.5" style="stroke-width: 1.01; stroke-opacity: 1; stroke: rgb(18, 18, 255);"></path><path class="link" marker-end="" d="M659,197, 993,276.5" style="stroke-width: 1.01; stroke-opacity: 1; stroke: rgb(178, 178, 255);"></path><path class="link" marker-end="" d="M659,197, 993,329.5" style="stroke-width: 1.01; stroke-opacity: 1; stroke: rgb(216, 216, 255);"></path><path class="link" marker-end="" d="M659,197, 993,382.5" style="stroke-width: 1.01; stroke-opacity: 1; stroke: rgb(178, 178, 255);"></path><path class="link" marker-end="" d="M659,197, 993,435.5" style="stroke-width: 1.01; stroke-opacity: 1; stroke: rgb(255, 181, 181);"></path><path class="link" marker-end="" d="M659,197, 993,488.5" style="stroke-width: 1.01; stroke-opacity: 1; stroke: rgb(255, 217, 217);"></path><path class="link" marker-end="" d="M659,197, 993,541.5" style="stroke-width: 1.01; stroke-opacity: 1; stroke: rgb(31, 31, 255);"></path><path class="link" marker-end="" d="M659,197, 993,594.5" style="stroke-width: 1.01; stroke-opacity: 1; stroke: rgb(255, 101, 101);"></path><path class="link" marker-end="" d="M659,250, 993,276.5" style="stroke-width: 1.01; stroke-opacity: 1; stroke: rgb(179, 179, 255);"></path><path class="link" marker-end="" d="M659,250, 993,329.5" style="stroke-width: 1.01; stroke-opacity: 1; stroke: rgb(181, 181, 255);"></path><path class="link" marker-end="" d="M659,250, 993,382.5" style="stroke-width: 1.01; stroke-opacity: 1; stroke: rgb(255, 192, 192);"></path><path class="link" marker-end="" d="M659,250, 993,435.5" style="stroke-width: 1.01; stroke-opacity: 1; stroke: rgb(255, 75, 75);"></path><path class="link" marker-end="" d="M659,250, 993,488.5" style="stroke-width: 1.01; stroke-opacity: 1; stroke: rgb(79, 79, 255);"></path><path class="link" marker-end="" d="M659,250, 993,541.5" style="stroke-width: 1.01; stroke-opacity: 1; stroke: rgb(158, 158, 255);"></path><path class="link" marker-end="" d="M659,250, 993,594.5" style="stroke-width: 1.01; stroke-opacity: 1; stroke: rgb(204, 204, 255);"></path><path class="link" marker-end="" d="M659,303, 993,276.5" style="stroke-width: 1.01; stroke-opacity: 1; stroke: rgb(242, 242, 255);"></path><path class="link" marker-end="" d="M659,303, 993,329.5" style="stroke-width: 1.01; stroke-opacity: 1; stroke: rgb(255, 52, 52);"></path><path class="link" marker-end="" d="M659,303, 993,382.5" style="stroke-width: 1.01; stroke-opacity: 1; stroke: rgb(155, 155, 255);"></path><path class="link" marker-end="" d="M659,303, 993,435.5" style="stroke-width: 1.01; stroke-opacity: 1; stroke: rgb(63, 63, 255);"></path><path class="link" marker-end="" d="M659,303, 993,488.5" style="stroke-width: 1.01; stroke-opacity: 1; stroke: rgb(255, 61, 61);"></path><path class="link" marker-end="" d="M659,303, 993,541.5" style="stroke-width: 1.01; stroke-opacity: 1; stroke: rgb(126, 126, 255);"></path><path class="link" marker-end="" d="M659,303, 993,594.5" style="stroke-width: 1.01; stroke-opacity: 1; stroke: rgb(187, 187, 255);"></path><path class="link" marker-end="" d="M659,356, 993,276.5" style="stroke-width: 1.01; stroke-opacity: 1; stroke: rgb(255, 7, 7);"></path><path class="link" marker-end="" d="M659,356, 993,329.5" style="stroke-width: 1.01; stroke-opacity: 1; stroke: rgb(49, 49, 255);"></path><path class="link" marker-end="" d="M659,356, 993,382.5" style="stroke-width: 1.01; stroke-opacity: 1; stroke: rgb(244, 244, 255);"></path><path class="link" marker-end="" d="M659,356, 993,435.5" style="stroke-width: 1.01; stroke-opacity: 1; stroke: rgb(255, 173, 173);"></path><path class="link" marker-end="" d="M659,356, 993,488.5" style="stroke-width: 1.01; stroke-opacity: 1; stroke: rgb(255, 87, 87);"></path><path class="link" marker-end="" d="M659,356, 993,541.5" style="stroke-width: 1.01; stroke-opacity: 1; stroke: rgb(187, 187, 255);"></path><path class="link" marker-end="" d="M659,356, 993,594.5" style="stroke-width: 1.01; stroke-opacity: 1; stroke: rgb(255, 219, 219);"></path><path class="link" marker-end="" d="M659,409, 993,276.5" style="stroke-width: 1.01; stroke-opacity: 1; stroke: rgb(122, 122, 255);"></path><path class="link" marker-end="" d="M659,409, 993,329.5" style="stroke-width: 1.01; stroke-opacity: 1; stroke: rgb(255, 125, 125);"></path><path class="link" marker-end="" d="M659,409, 993,382.5" style="stroke-width: 1.01; stroke-opacity: 1; stroke: rgb(6, 6, 255);"></path><path class="link" marker-end="" d="M659,409, 993,435.5" style="stroke-width: 1.01; stroke-opacity: 1; stroke: rgb(166, 166, 255);"></path><path class="link" marker-end="" d="M659,409, 993,488.5" style="stroke-width: 1.01; stroke-opacity: 1; stroke: rgb(169, 169, 255);"></path><path class="link" marker-end="" d="M659,409, 993,541.5" style="stroke-width: 1.01; stroke-opacity: 1; stroke: rgb(255, 127, 127);"></path><path class="link" marker-end="" d="M659,409, 993,594.5" style="stroke-width: 1.01; stroke-opacity: 1; stroke: rgb(255, 113, 113);"></path><path class="link" marker-end="" d="M659,462, 993,276.5" style="stroke-width: 1.01; stroke-opacity: 1; stroke: rgb(255, 224, 224);"></path><path class="link" marker-end="" d="M659,462, 993,329.5" style="stroke-width: 1.01; stroke-opacity: 1; stroke: rgb(195, 195, 255);"></path><path class="link" marker-end="" d="M659,462, 993,382.5" style="stroke-width: 1.01; stroke-opacity: 1; stroke: rgb(255, 97, 97);"></path><path class="link" marker-end="" d="M659,462, 993,435.5" style="stroke-width: 1.01; stroke-opacity: 1; stroke: rgb(139, 139, 255);"></path><path class="link" marker-end="" d="M659,462, 993,488.5" style="stroke-width: 1.01; stroke-opacity: 1; stroke: rgb(106, 106, 255);"></path><path class="link" marker-end="" d="M659,462, 993,541.5" style="stroke-width: 1.01; stroke-opacity: 1; stroke: rgb(182, 182, 255);"></path><path class="link" marker-end="" d="M659,462, 993,594.5" style="stroke-width: 1.01; stroke-opacity: 1; stroke: rgb(129, 129, 255);"></path><path class="link" marker-end="" d="M659,515, 993,276.5" style="stroke-width: 1.01; stroke-opacity: 1; stroke: rgb(189, 189, 255);"></path><path class="link" marker-end="" d="M659,515, 993,329.5" style="stroke-width: 1.01; stroke-opacity: 1; stroke: rgb(255, 54, 54);"></path><path class="link" marker-end="" d="M659,515, 993,382.5" style="stroke-width: 1.01; stroke-opacity: 1; stroke: rgb(23, 23, 255);"></path><path class="link" marker-end="" d="M659,515, 993,435.5" style="stroke-width: 1.01; stroke-opacity: 1; stroke: rgb(255, 171, 171);"></path><path class="link" marker-end="" d="M659,515, 993,488.5" style="stroke-width: 1.01; stroke-opacity: 1; stroke: rgb(255, 250, 250);"></path><path class="link" marker-end="" d="M659,515, 993,541.5" style="stroke-width: 1.01; stroke-opacity: 1; stroke: rgb(255, 3, 3);"></path><path class="link" marker-end="" d="M659,515, 993,594.5" style="stroke-width: 1.01; stroke-opacity: 1; stroke: rgb(255, 198, 198);"></path><path class="link" marker-end="" d="M659,568, 993,276.5" style="stroke-width: 1.01; stroke-opacity: 1; stroke: rgb(113, 113, 255);"></path><path class="link" marker-end="" d="M659,568, 993,329.5" style="stroke-width: 1.01; stroke-opacity: 1; stroke: rgb(255, 111, 111);"></path><path class="link" marker-end="" d="M659,568, 993,382.5" style="stroke-width: 1.01; stroke-opacity: 1; stroke: rgb(27, 27, 255);"></path><path class="link" marker-end="" d="M659,568, 993,435.5" style="stroke-width: 1.01; stroke-opacity: 1; stroke: rgb(255, 156, 156);"></path><path class="link" marker-end="" d="M659,568, 993,488.5" style="stroke-width: 1.01; stroke-opacity: 1; stroke: rgb(255, 209, 209);"></path><path class="link" marker-end="" d="M659,568, 993,541.5" style="stroke-width: 1.01; stroke-opacity: 1; stroke: rgb(255, 158, 158);"></path><path class="link" marker-end="" d="M659,568, 993,594.5" style="stroke-width: 1.01; stroke-opacity: 1; stroke: rgb(45, 45, 255);"></path><path class="link" marker-end="" d="M659,621, 993,276.5" style="stroke-width: 1.01; stroke-opacity: 1; stroke: rgb(255, 230, 230);"></path><path class="link" marker-end="" d="M659,621, 993,329.5" style="stroke-width: 1.01; stroke-opacity: 1; stroke: rgb(255, 137, 137);"></path><path class="link" marker-end="" d="M659,621, 993,382.5" style="stroke-width: 1.01; stroke-opacity: 1; stroke: rgb(244, 244, 255);"></path><path class="link" marker-end="" d="M659,621, 993,435.5" style="stroke-width: 1.01; stroke-opacity: 1; stroke: rgb(255, 72, 72);"></path><path class="link" marker-end="" d="M659,621, 993,488.5" style="stroke-width: 1.01; stroke-opacity: 1; stroke: rgb(255, 171, 171);"></path><path class="link" marker-end="" d="M659,621, 993,541.5" style="stroke-width: 1.01; stroke-opacity: 1; stroke: rgb(255, 90, 90);"></path><path class="link" marker-end="" d="M659,621, 993,594.5" style="stroke-width: 1.01; stroke-opacity: 1; stroke: rgb(216, 216, 255);"></path><path class="link" marker-end="" d="M659,674, 993,276.5" style="stroke-width: 1.01; stroke-opacity: 1; stroke: rgb(71, 71, 255);"></path><path class="link" marker-end="" d="M659,674, 993,329.5" style="stroke-width: 1.01; stroke-opacity: 1; stroke: rgb(255, 212, 212);"></path><path class="link" marker-end="" d="M659,674, 993,382.5" style="stroke-width: 1.01; stroke-opacity: 1; stroke: rgb(210, 210, 255);"></path><path class="link" marker-end="" d="M659,674, 993,435.5" style="stroke-width: 1.01; stroke-opacity: 1; stroke: rgb(255, 145, 145);"></path><path class="link" marker-end="" d="M659,674, 993,488.5" style="stroke-width: 1.01; stroke-opacity: 1; stroke: rgb(255, 209, 209);"></path><path class="link" marker-end="" d="M659,674, 993,541.5" style="stroke-width: 1.01; stroke-opacity: 1; stroke: rgb(255, 108, 108);"></path><path class="link" marker-end="" d="M659,674, 993,594.5" style="stroke-width: 1.01; stroke-opacity: 1; stroke: rgb(255, 92, 92);"></path><path class="link" marker-end="" d="M659,727, 993,276.5" style="stroke-width: 1.01; stroke-opacity: 1; stroke: rgb(255, 209, 209);"></path><path class="link" marker-end="" d="M659,727, 993,329.5" style="stroke-width: 1.01; stroke-opacity: 1; stroke: rgb(253, 253, 255);"></path><path class="link" marker-end="" d="M659,727, 993,382.5" style="stroke-width: 1.01; stroke-opacity: 1; stroke: rgb(107, 107, 255);"></path><path class="link" marker-end="" d="M659,727, 993,435.5" style="stroke-width: 1.01; stroke-opacity: 1; stroke: rgb(255, 135, 135);"></path><path class="link" marker-end="" d="M659,727, 993,488.5" style="stroke-width: 1.01; stroke-opacity: 1; stroke: rgb(184, 184, 255);"></path><path class="link" marker-end="" d="M659,727, 993,541.5" style="stroke-width: 1.01; stroke-opacity: 1; stroke: rgb(255, 79, 79);"></path><path class="link" marker-end="" d="M659,727, 993,594.5" style="stroke-width: 1.01; stroke-opacity: 1; stroke: rgb(255, 31, 31);"></path><path class="link" marker-end="" d="M659,780, 993,276.5" style="stroke-width: 1.01; stroke-opacity: 1; stroke: rgb(255, 36, 36);"></path><path class="link" marker-end="" d="M659,780, 993,329.5" style="stroke-width: 1.01; stroke-opacity: 1; stroke: rgb(255, 27, 27);"></path><path class="link" marker-end="" d="M659,780, 993,382.5" style="stroke-width: 1.01; stroke-opacity: 1; stroke: rgb(149, 149, 255);"></path><path class="link" marker-end="" d="M659,780, 993,435.5" style="stroke-width: 1.01; stroke-opacity: 1; stroke: rgb(43, 43, 255);"></path><path class="link" marker-end="" d="M659,780, 993,488.5" style="stroke-width: 1.01; stroke-opacity: 1; stroke: rgb(255, 97, 97);"></path><path class="link" marker-end="" d="M659,780, 993,541.5" style="stroke-width: 1.01; stroke-opacity: 1; stroke: rgb(255, 206, 206);"></path><path class="link" marker-end="" d="M659,780, 993,594.5" style="stroke-width: 1.01; stroke-opacity: 1; stroke: rgb(255, 171, 171);"></path><path class="link" marker-end="" d="M659,833, 993,276.5" style="stroke-width: 1.01; stroke-opacity: 1; stroke: rgb(255, 219, 219);"></path><path class="link" marker-end="" d="M659,833, 993,329.5" style="stroke-width: 1.01; stroke-opacity: 1; stroke: rgb(255, 1, 1);"></path><path class="link" marker-end="" d="M659,833, 993,382.5" style="stroke-width: 1.01; stroke-opacity: 1; stroke: rgb(23, 23, 255);"></path><path class="link" marker-end="" d="M659,833, 993,435.5" style="stroke-width: 1.01; stroke-opacity: 1; stroke: rgb(255, 233, 233);"></path><path class="link" marker-end="" d="M659,833, 993,488.5" style="stroke-width: 1.01; stroke-opacity: 1; stroke: rgb(255, 211, 211);"></path><path class="link" marker-end="" d="M659,833, 993,541.5" style="stroke-width: 1.01; stroke-opacity: 1; stroke: rgb(255, 235, 235);"></path><path class="link" marker-end="" d="M659,833, 993,594.5" style="stroke-width: 1.01; stroke-opacity: 1; stroke: rgb(50, 50, 255);"></path><path class="link" marker-end="" d="M993,276.5, 1327,329.5" style="stroke-width: 1.01; stroke-opacity: 1; stroke: rgb(255, 130, 130);"></path><path class="link" marker-end="" d="M993,276.5, 1327,382.5" style="stroke-width: 1.01; stroke-opacity: 1; stroke: rgb(199, 199, 255);"></path><path class="link" marker-end="" d="M993,276.5, 1327,435.5" style="stroke-width: 1.01; stroke-opacity: 1; stroke: rgb(255, 140, 140);"></path><path class="link" marker-end="" d="M993,276.5, 1327,488.5" style="stroke-width: 1.01; stroke-opacity: 1; stroke: rgb(133, 133, 255);"></path><path class="link" marker-end="" d="M993,276.5, 1327,541.5" style="stroke-width: 1.01; stroke-opacity: 1; stroke: rgb(255, 42, 42);"></path><path class="link" marker-end="" d="M993,329.5, 1327,329.5" style="stroke-width: 1.01; stroke-opacity: 1; stroke: rgb(255, 85, 85);"></path><path class="link" marker-end="" d="M993,329.5, 1327,382.5" style="stroke-width: 1.01; stroke-opacity: 1; stroke: rgb(254, 254, 255);"></path><path class="link" marker-end="" d="M993,329.5, 1327,435.5" style="stroke-width: 1.01; stroke-opacity: 1; stroke: rgb(255, 19, 19);"></path><path class="link" marker-end="" d="M993,329.5, 1327,488.5" style="stroke-width: 1.01; stroke-opacity: 1; stroke: rgb(255, 191, 191);"></path><path class="link" marker-end="" d="M993,329.5, 1327,541.5" style="stroke-width: 1.01; stroke-opacity: 1; stroke: rgb(255, 170, 170);"></path><path class="link" marker-end="" d="M993,382.5, 1327,329.5" style="stroke-width: 1.01; stroke-opacity: 1; stroke: rgb(255, 92, 92);"></path><path class="link" marker-end="" d="M993,382.5, 1327,382.5" style="stroke-width: 1.01; stroke-opacity: 1; stroke: rgb(19, 19, 255);"></path><path class="link" marker-end="" d="M993,382.5, 1327,435.5" style="stroke-width: 1.01; stroke-opacity: 1; stroke: rgb(58, 58, 255);"></path><path class="link" marker-end="" d="M993,382.5, 1327,488.5" style="stroke-width: 1.01; stroke-opacity: 1; stroke: rgb(255, 161, 161);"></path><path class="link" marker-end="" d="M993,382.5, 1327,541.5" style="stroke-width: 1.01; stroke-opacity: 1; stroke: rgb(255, 153, 153);"></path><path class="link" marker-end="" d="M993,435.5, 1327,329.5" style="stroke-width: 1.01; stroke-opacity: 1; stroke: rgb(148, 148, 255);"></path><path class="link" marker-end="" d="M993,435.5, 1327,382.5" style="stroke-width: 1.01; stroke-opacity: 1; stroke: rgb(255, 40, 40);"></path><path class="link" marker-end="" d="M993,435.5, 1327,435.5" style="stroke-width: 1.01; stroke-opacity: 1; stroke: rgb(255, 31, 31);"></path><path class="link" marker-end="" d="M993,435.5, 1327,488.5" style="stroke-width: 1.01; stroke-opacity: 1; stroke: rgb(255, 69, 69);"></path><path class="link" marker-end="" d="M993,435.5, 1327,541.5" style="stroke-width: 1.01; stroke-opacity: 1; stroke: rgb(196, 196, 255);"></path><path class="link" marker-end="" d="M993,488.5, 1327,329.5" style="stroke-width: 1.01; stroke-opacity: 1; stroke: rgb(42, 42, 255);"></path><path class="link" marker-end="" d="M993,488.5, 1327,382.5" style="stroke-width: 1.01; stroke-opacity: 1; stroke: rgb(183, 183, 255);"></path><path class="link" marker-end="" d="M993,488.5, 1327,435.5" style="stroke-width: 1.01; stroke-opacity: 1; stroke: rgb(95, 95, 255);"></path><path class="link" marker-end="" d="M993,488.5, 1327,488.5" style="stroke-width: 1.01; stroke-opacity: 1; stroke: rgb(252, 252, 255);"></path><path class="link" marker-end="" d="M993,488.5, 1327,541.5" style="stroke-width: 1.01; stroke-opacity: 1; stroke: rgb(89, 89, 255);"></path><path class="link" marker-end="" d="M993,541.5, 1327,329.5" style="stroke-width: 1.01; stroke-opacity: 1; stroke: rgb(255, 57, 57);"></path><path class="link" marker-end="" d="M993,541.5, 1327,382.5" style="stroke-width: 1.01; stroke-opacity: 1; stroke: rgb(129, 129, 255);"></path><path class="link" marker-end="" d="M993,541.5, 1327,435.5" style="stroke-width: 1.01; stroke-opacity: 1; stroke: rgb(255, 60, 60);"></path><path class="link" marker-end="" d="M993,541.5, 1327,488.5" style="stroke-width: 1.01; stroke-opacity: 1; stroke: rgb(96, 96, 255);"></path><path class="link" marker-end="" d="M993,541.5, 1327,541.5" style="stroke-width: 1.01; stroke-opacity: 1; stroke: rgb(255, 137, 137);"></path><path class="link" marker-end="" d="M993,594.5, 1327,329.5" style="stroke-width: 1.01; stroke-opacity: 1; stroke: rgb(255, 207, 207);"></path><path class="link" marker-end="" d="M993,594.5, 1327,382.5" style="stroke-width: 1.01; stroke-opacity: 1; stroke: rgb(177, 177, 255);"></path><path class="link" marker-end="" d="M993,594.5, 1327,435.5" style="stroke-width: 1.01; stroke-opacity: 1; stroke: rgb(210, 210, 255);"></path><path class="link" marker-end="" d="M993,594.5, 1327,488.5" style="stroke-width: 1.01; stroke-opacity: 1; stroke: rgb(255, 2, 2);"></path><path class="link" marker-end="" d="M993,594.5, 1327,541.5" style="stroke-width: 1.01; stroke-opacity: 1; stroke: rgb(255, 20, 20);"></path><circle r="16.5" class="node" id="0_0" cx="659" cy="38" style="fill: rgb(255, 255, 255); stroke: rgb(51, 51, 51);"></circle><circle r="16.5" class="node" id="0_1" cx="659" cy="91" style="fill: rgb(255, 255, 255); stroke: rgb(51, 51, 51);"></circle><circle r="16.5" class="node" id="0_2" cx="659" cy="144" style="fill: rgb(255, 255, 255); stroke: rgb(51, 51, 51);"></circle><circle r="16.5" class="node" id="0_3" cx="659" cy="197" style="fill: rgb(255, 255, 255); stroke: rgb(51, 51, 51);"></circle><circle r="16.5" class="node" id="0_4" cx="659" cy="250" style="fill: rgb(255, 255, 255); stroke: rgb(51, 51, 51);"></circle><circle r="16.5" class="node" id="0_5" cx="659" cy="303" style="fill: rgb(255, 255, 255); stroke: rgb(51, 51, 51);"></circle><circle r="16.5" class="node" id="0_6" cx="659" cy="356" style="fill: rgb(255, 255, 255); stroke: rgb(51, 51, 51);"></circle><circle r="16.5" class="node" id="0_7" cx="659" cy="409" style="fill: rgb(255, 255, 255); stroke: rgb(51, 51, 51);"></circle><circle r="16.5" class="node" id="0_8" cx="659" cy="462" style="fill: rgb(255, 255, 255); stroke: rgb(51, 51, 51);"></circle><circle r="16.5" class="node" id="0_9" cx="659" cy="515" style="fill: rgb(255, 255, 255); stroke: rgb(51, 51, 51);"></circle><circle r="16.5" class="node" id="0_10" cx="659" cy="568" style="fill: rgb(255, 255, 255); stroke: rgb(51, 51, 51);"></circle><circle r="16.5" class="node" id="0_11" cx="659" cy="621" style="fill: rgb(255, 255, 255); stroke: rgb(51, 51, 51);"></circle><circle r="16.5" class="node" id="0_12" cx="659" cy="674" style="fill: rgb(255, 255, 255); stroke: rgb(51, 51, 51);"></circle><circle r="16.5" class="node" id="0_13" cx="659" cy="727" style="fill: rgb(255, 255, 255); stroke: rgb(51, 51, 51);"></circle><circle r="16.5" class="node" id="0_14" cx="659" cy="780" style="fill: rgb(255, 255, 255); stroke: rgb(51, 51, 51);"></circle><circle r="16.5" class="node" id="0_15" cx="659" cy="833" style="fill: rgb(255, 255, 255); stroke: rgb(51, 51, 51);"></circle><circle r="16.5" class="node" id="1_0" cx="993" cy="276.5" style="fill: rgb(255, 255, 255); stroke: rgb(51, 51, 51);"></circle><circle r="16.5" class="node" id="1_1" cx="993" cy="329.5" style="fill: rgb(255, 255, 255); stroke: rgb(51, 51, 51);"></circle><circle r="16.5" class="node" id="1_2" cx="993" cy="382.5" style="fill: rgb(255, 255, 255); stroke: rgb(51, 51, 51);"></circle><circle r="16.5" class="node" id="1_3" cx="993" cy="435.5" style="fill: rgb(255, 255, 255); stroke: rgb(51, 51, 51);"></circle><circle r="16.5" class="node" id="1_4" cx="993" cy="488.5" style="fill: rgb(255, 255, 255); stroke: rgb(51, 51, 51);"></circle><circle r="16.5" class="node" id="1_5" cx="993" cy="541.5" style="fill: rgb(255, 255, 255); stroke: rgb(51, 51, 51);"></circle><circle r="16.5" class="node" id="1_6" cx="993" cy="594.5" style="fill: rgb(255, 255, 255); stroke: rgb(51, 51, 51);"></circle><circle r="16.5" class="node" id="2_0" cx="1327" cy="329.5" style="fill: rgb(255, 255, 255); stroke: rgb(51, 51, 51);"></circle><circle r="16.5" class="node" id="2_1" cx="1327" cy="382.5" style="fill: rgb(255, 255, 255); stroke: rgb(51, 51, 51);"></circle><circle r="16.5" class="node" id="2_2" cx="1327" cy="435.5" style="fill: rgb(255, 255, 255); stroke: rgb(51, 51, 51);"></circle><circle r="16.5" class="node" id="2_3" cx="1327" cy="488.5" style="fill: rgb(255, 255, 255); stroke: rgb(51, 51, 51);"></circle><circle r="16.5" class="node" id="2_4" cx="1327" cy="541.5" style="fill: rgb(255, 255, 255); stroke: rgb(51, 51, 51);"></circle><text class="text" dy=".35em" x="624" y="886" style="font-size: 12px;">Input Layer ∈ ℝ¹⁶</text><text class="text" dy=".35em" x="958" y="886" style="font-size: 12px;">Hidden Layer ∈ ℝ⁷</text><text class="text" dy=".35em" x="1292" y="886" style="font-size: 12px;">Output Layer ∈ ℝ⁵</text></g><defs><marker id="arrow" viewBox="0 -5 10 10" markerWidth="7" markerHeight="7" orient="auto" refX="58.199999999999996"><path d="M0,-5L10,0L0,5" style="stroke: rgb(80, 80, 80); fill: none;"></path></marker></defs></svg>